<?xml version="1.0" encoding="UTF-8"?>
<!-- VIEW_SETTINGS (category-list mode) — landscape 800×480 at half-scale.
     Same compact 4×2 tile grid pattern as VIEW_HOME. -->
<svg xmlns="http://www.w3.org/2000/svg" width="400" height="240" viewBox="0 0 400 240">
  <defs>
    <style type="text/css"><![CDATA[
      text { font-family: 'Saira', 'Helvetica Neue', sans-serif; }
    ]]></style>
  </defs>

  <rect width="400" height="240" fill="#0E141B" rx="4"/>
  <rect x="0.5" y="0.5" width="399" height="239" fill="none" stroke="#16161E" stroke-width="1" rx="4"/>

  <!-- Tab bar -->
  <rect x="0" y="0" width="400" height="22" fill="#0E141B"/>
  <rect x="0" y="21" width="400" height="1" fill="#FAA61A"/>
  <text x="6" y="15" fill="#FAA61A" font-size="10" font-weight="600">Settings</text>
  <text x="290" y="15" fill="#9ECE6A" font-size="9">RX:42</text>
  <text x="325" y="15" fill="#C0C8D0" font-size="9">TX:0.4%</text>
  <text x="364" y="15" fill="#9ECE6A" font-size="9">87%+</text>

  <!-- Row 1 (y=30, h=72) -->
  <!-- Identity (focused) -->
  <rect x="14" y="30" width="74" height="72" fill="#FAA61A"/>
  <rect x="16" y="32" width="70" height="2" fill="#0E141B"/>
  <rect x="16" y="98" width="70" height="2" fill="#0E141B"/>
  <rect x="16" y="32" width="2" height="68" fill="#0E141B"/>
  <rect x="86" y="32" width="2" height="68" fill="#0E141B"/>
  <circle cx="51" cy="55" r="4" fill="none" stroke="#16161E" stroke-width="1.5"/>
  <circle cx="51" cy="68" r="8" fill="none" stroke="#16161E" stroke-width="1.5"/>
  <text x="51" y="90" text-anchor="middle" fill="#16161E" font-size="10" font-weight="500">Identity</text>

  <!-- Regulatory -->
  <rect x="102" y="30" width="74" height="72" fill="#16161E"/>
  <polygon points="139,46 151,53 151,68 139,75 127,68 127,53" fill="none" stroke="#C0C8D0" stroke-width="1.5"/>
  <text x="139" y="90" text-anchor="middle" fill="#C0C8D0" font-size="10" font-weight="500">Regulatory</text>

  <!-- Radio -->
  <rect x="190" y="30" width="74" height="72" fill="#16161E"/>
  <circle cx="227" cy="60" r="2.5" fill="#C0C8D0"/>
  <circle cx="227" cy="60" r="7" fill="none" stroke="#C0C8D0" stroke-width="1.5"/>
  <circle cx="227" cy="60" r="12" fill="none" stroke="#C0C8D0" stroke-width="1.5"/>
  <text x="227" y="90" text-anchor="middle" fill="#C0C8D0" font-size="10" font-weight="500">Radio</text>

  <!-- Network -->
  <rect x="278" y="30" width="74" height="72" fill="#16161E"/>
  <circle cx="315" cy="50" r="1.8" fill="#C0C8D0"/>
  <circle cx="306" cy="70" r="1.8" fill="#C0C8D0"/>
  <circle cx="324" cy="70" r="1.8" fill="#C0C8D0"/>
  <line x1="315" y1="50" x2="306" y2="70" stroke="#C0C8D0" stroke-width="0.9"/>
  <line x1="315" y1="50" x2="324" y2="70" stroke="#C0C8D0" stroke-width="0.9"/>
  <line x1="306" y1="70" x2="324" y2="70" stroke="#C0C8D0" stroke-width="0.9"/>
  <text x="315" y="90" text-anchor="middle" fill="#C0C8D0" font-size="10" font-weight="500">Network</text>

  <!-- Row 2 (y=110, h=72) -->
  <!-- Region & Location -->
  <rect x="14" y="110" width="74" height="72" fill="#16161E"/>
  <circle cx="51" cy="132" r="7" fill="none" stroke="#C0C8D0" stroke-width="1.5"/>
  <line x1="46" y1="137" x2="51" y2="150" stroke="#C0C8D0" stroke-width="1.5"/>
  <line x1="56" y1="137" x2="51" y2="150" stroke="#C0C8D0" stroke-width="1.5"/>
  <circle cx="51" cy="132" r="2.5" fill="#C0C8D0"/>
  <text x="51" y="167" text-anchor="middle" fill="#C0C8D0" font-size="9" font-weight="500">Region &amp;</text>
  <text x="51" y="176" text-anchor="middle" fill="#C0C8D0" font-size="9" font-weight="500">Location</text>

  <!-- Brightness -->
  <rect x="102" y="110" width="74" height="72" fill="#16161E"/>
  <circle cx="139" cy="138" r="5" fill="#C0C8D0"/>
  <g stroke="#C0C8D0" stroke-width="1.5">
    <line x1="139" y1="128" x2="139" y2="124"/>
    <line x1="139" y1="152" x2="139" y2="148"/>
    <line x1="129" y1="138" x2="125" y2="138"/>
    <line x1="149" y1="138" x2="153" y2="138"/>
  </g>
  <text x="139" y="170" text-anchor="middle" fill="#C0C8D0" font-size="10" font-weight="500">Brightness</text>

  <!-- Sounds (NEW) -->
  <rect x="190" y="110" width="74" height="72" fill="#16161E"/>
  <polygon points="217,132 224,132 231,126 231,150 224,144 217,144" fill="none" stroke="#C0C8D0" stroke-width="1.5"/>
  <path d="M 234 132 A 7 7 0 0 1 234 144" fill="none" stroke="#C0C8D0" stroke-width="1.5"/>
  <path d="M 239 128 A 12 12 0 0 1 239 148" fill="none" stroke="#C0C8D0" stroke-width="1.5"/>
  <text x="227" y="170" text-anchor="middle" fill="#C0C8D0" font-size="10" font-weight="500">Sounds</text>

  <!-- Empty slot -->
  <rect x="278" y="110" width="74" height="72" fill="#0E141B" stroke="#16161E" stroke-width="1" stroke-dasharray="2,2"/>

  <!-- Footer -->
  <rect x="0" y="194" width="400" height="46" fill="#16161E"/>
  <rect x="0" y="194" width="400" height="1" fill="#FAA61A"/>
  <text x="6" y="207" fill="#565F89" font-size="8">WSAD: nav   Enter: open category   ESC: home   Tab: next view</text>
  <text x="6" y="219" fill="#565F89" font-size="8">Advert reached via Home → Advert tile (hidden here)</text>
  <text x="394" y="207" text-anchor="end" fill="#565F89" font-size="8">7 categories  ·  6 visible</text>
</svg>
