<?xml version="1.0" encoding="UTF-8"?>
<!-- VIEW_HOME — tile-grid landing screen in LilyGo Pager palette.
     Half-scale of the real 800x1280 display (1 SVG px = 2 real px).
     HOME_HEADER_H=50 real → 25 here, HOME_FOOTER_H=38 → 19 here,
     HOME_H_MARGIN=30 → 15, HOME_V_MARGIN=20 → 10. -->
<svg xmlns="http://www.w3.org/2000/svg" width="400" height="640">
  <defs>
    <style type="text/css"><![CDATA[
      text { font-family: 'Saira', 'Helvetica Neue', sans-serif; }
    ]]></style>
  </defs>

  <!-- Screen background (Pager BG) + border -->
  <rect width="400" height="640" fill="#0E141B" rx="4"/>
  <rect x="0.5" y="0.5" width="399" height="639" fill="none" stroke="#16161E" stroke-width="1" rx="4"/>

  <!-- Top status strip: advert/owner name on left, RX/TX/battery on right -->
  <rect x="0" y="0" width="400" height="25" fill="#0E141B"/>
  <rect x="0" y="24" width="400" height="1" fill="#FAA61A"/>
  <text x="6" y="17" fill="#C0C8D0" font-size="11" font-weight="500">CJvS</text>
  <text x="295" y="17" fill="#9ECE6A" font-size="10">RX:42</text>
  <text x="332" y="17" fill="#C0C8D0" font-size="10">TX:0.4%</text>
  <text x="370" y="17" fill="#9ECE6A" font-size="10">87%+</text>

  <!-- 4x2 tile grid. Tile_w = (400 - 15*5) / 4 = 81.25, tile_h = (640-25-10-10-19)/2 = 288 -->
  <!-- Row 1 -->
  <!-- Tile 0: Nodes (focused, orange) -->
  <rect x="15" y="35" width="81" height="288" fill="#FAA61A"/>
  <rect x="17" y="37" width="77" height="2" fill="#0E141B"/>
  <rect x="17" y="319" width="77" height="2" fill="#0E141B"/>
  <rect x="17" y="37" width="2" height="284" fill="#0E141B"/>
  <rect x="94" y="37" width="2" height="284" fill="#0E141B"/>
  <!-- Icon: 3 connected dots -->
  <line x1="48" y1="140" x2="63" y2="140" stroke="#16161E" stroke-width="2"/>
  <line x1="48" y1="140" x2="55" y2="160" stroke="#16161E" stroke-width="2"/>
  <line x1="63" y1="140" x2="55" y2="160" stroke="#16161E" stroke-width="2"/>
  <circle cx="48" cy="140" r="4" fill="#16161E"/>
  <circle cx="63" cy="140" r="4" fill="#16161E"/>
  <circle cx="55" cy="160" r="4" fill="#16161E"/>
  <text x="55" y="246" text-anchor="middle" fill="#16161E" font-size="11" font-weight="500">Nodes</text>

  <!-- Tile 1: DM (with unread badge "3") -->
  <rect x="111" y="35" width="81" height="288" fill="#16161E"/>
  <rect x="124" y="125" width="35" height="22" fill="#C0C8D0"/>
  <polygon points="130,147 138,147 132,156" fill="#C0C8D0"/>
  <text x="151" y="246" text-anchor="middle" fill="#C0C8D0" font-size="11" font-weight="500">DM</text>
  <!-- Unread badge top-right -->
  <rect x="167" y="42" width="19" height="14" fill="#F7768E"/>
  <text x="176" y="53" text-anchor="middle" fill="#0E141B" font-size="9" font-weight="500">3</text>

  <!-- Tile 2: Channel -->
  <rect x="207" y="35" width="81" height="288" fill="#16161E"/>
  <text x="247" y="160" text-anchor="middle" fill="#C0C8D0" font-size="32">#</text>
  <text x="247" y="246" text-anchor="middle" fill="#C0C8D0" font-size="11" font-weight="500">Channel</text>

  <!-- Tile 3: Map (TBD, dimmer + "soon") -->
  <rect x="303" y="35" width="81" height="288" fill="#16161E"/>
  <circle cx="343" cy="140" r="20" fill="none" stroke="#565F89" stroke-width="2"/>
  <line x1="323" y1="140" x2="363" y2="140" stroke="#565F89" stroke-width="2"/>
  <circle cx="343" cy="140" r="10" fill="none" stroke="#565F89" stroke-width="2"/>
  <text x="343" y="246" text-anchor="middle" fill="#565F89" font-size="11" font-weight="500">Map</text>
  <text x="343" y="261" text-anchor="middle" fill="#565F89" font-size="8">soon</text>

  <!-- Row 2 -->
  <!-- Tile 4: Advert (live, send + toast) -->
  <rect x="15" y="333" width="81" height="288" fill="#16161E"/>
  <g fill="#C0C8D0">
    <rect x="38" y="120" width="6" height="6"/><rect x="50" y="120" width="6" height="6"/><rect x="62" y="120" width="6" height="6"/>
    <rect x="44" y="132" width="6" height="6"/><rect x="56" y="132" width="6" height="6"/>
    <rect x="38" y="144" width="6" height="6"/><rect x="50" y="144" width="6" height="6"/><rect x="62" y="144" width="6" height="6"/>
  </g>
  <!-- Move icon down to avoid overlap with row-1 area; for SVG clarity show full tile-2 icon -->
  <text x="55" y="544" text-anchor="middle" fill="#C0C8D0" font-size="11" font-weight="500">Advert</text>

  <!-- Tile 5: Settings -->
  <rect x="111" y="333" width="81" height="288" fill="#16161E"/>
  <circle cx="151" cy="438" r="10" fill="none" stroke="#C0C8D0" stroke-width="2"/>
  <circle cx="151" cy="438" r="6" fill="none" stroke="#C0C8D0" stroke-width="2"/>
  <g fill="#C0C8D0">
    <circle cx="151" cy="420" r="2"/><circle cx="166" cy="438" r="2"/>
    <circle cx="151" cy="456" r="2"/><circle cx="136" cy="438" r="2"/>
    <circle cx="162" cy="427" r="2"/><circle cx="162" cy="449" r="2"/>
    <circle cx="140" cy="449" r="2"/><circle cx="140" cy="427" r="2"/>
  </g>
  <text x="151" y="544" text-anchor="middle" fill="#C0C8D0" font-size="11" font-weight="500">Settings</text>

  <!-- Tile 6: About -->
  <rect x="207" y="333" width="81" height="288" fill="#16161E"/>
  <circle cx="247" cy="438" r="14" fill="none" stroke="#C0C8D0" stroke-width="2"/>
  <text x="247" y="445" text-anchor="middle" fill="#C0C8D0" font-size="16" font-style="italic" font-weight="500">i</text>
  <text x="247" y="544" text-anchor="middle" fill="#C0C8D0" font-size="11" font-weight="500">About</text>

  <!-- Tile 7: QR -->
  <rect x="303" y="333" width="81" height="288" fill="#16161E"/>
  <g fill="#C0C8D0">
    <rect x="326" y="418" width="6" height="6"/><rect x="338" y="418" width="6" height="6"/><rect x="350" y="418" width="6" height="6"/>
    <rect x="332" y="430" width="6" height="6"/><rect x="344" y="430" width="6" height="6"/>
    <rect x="326" y="442" width="6" height="6"/><rect x="338" y="442" width="6" height="6"/><rect x="350" y="442" width="6" height="6"/>
  </g>
  <text x="343" y="544" text-anchor="middle" fill="#C0C8D0" font-size="11" font-weight="500">QR</text>

  <!-- Footer: hint left, RX/SNR/noise right -->
  <rect x="0" y="621" width="400" height="19" fill="#16161E"/>
  <rect x="0" y="621" width="400" height="1" fill="#FAA61A"/>
  <text x="5" y="634" fill="#565F89" font-size="8">WSAD: nav   Enter: open   Tab: classic tabs</text>
  <text x="395" y="634" text-anchor="end" fill="#565F89" font-size="8">RX:-92 SNR:+4 N:-110</text>
</svg>
