<?xml version="1.0" encoding="UTF-8"?>
<!-- Public Channel view — Tokyo Night palette.
     Same layout as DM minus the header bar (uses "Public channel" label) and green typing border. -->
<svg xmlns="http://www.w3.org/2000/svg" width="400" height="640">
  <rect width="400" height="640" fill="#1A1B26" rx="4"/>
  <rect x="0.5" y="0.5" width="399" height="639" fill="none" stroke="#24283B" stroke-width="1" rx="4"/>

  <!-- ── Tab bar ── -->
  <rect x="0" y="0" width="400" height="22" fill="#16161E" rx="4"/>
  <rect x="0" y="11" width="400" height="11" fill="#16161E"/>
  <text x="37"  y="16" fill="#565F89" font-family="'Saira',sans-serif" font-size="11" text-anchor="middle">Settings</text>
  <text x="112" y="16" fill="#565F89" font-family="'Saira',sans-serif" font-size="11" text-anchor="middle">Nodes</text>
  <text x="187" y="16" fill="#565F89" font-family="'Saira',sans-serif" font-size="11" text-anchor="middle">DM</text>
  <!-- Active: Channel -->
  <rect x="225" y="0" width="75" height="22" fill="#7AA2F7" rx="4"/>
  <rect x="225" y="11" width="75" height="11" fill="#7AA2F7"/>
  <text x="262" y="16" fill="#16161E" font-family="'Saira',sans-serif" font-size="11" font-weight="500" text-anchor="middle">Channel</text>
  <text x="394" y="16" fill="#9ECE6A" font-family="'Saira',sans-serif" font-size="10" text-anchor="end">72%</text>
  <text x="370" y="16" fill="#565F89" font-family="'Saira',sans-serif" font-size="10" text-anchor="end">|</text>
  <text x="360" y="16" fill="#9ECE6A" font-family="'Saira',sans-serif" font-size="10" text-anchor="end">RX:12</text>
  <rect x="0" y="21" width="400" height="1" fill="#24283B"/>

  <!-- ── Header (panel strip) ── -->
  <rect x="0" y="24" width="400" height="14" fill="#24283B"/>
  <text x="10" y="35" fill="#C0CAF5" font-family="'Saira',sans-serif" font-size="10" font-weight="500">Public channel</text>

  <!-- ── Channel rows (start y=40) ── -->
  <text x="14" y="56" fill="#C0CAF5" font-family="'Saira',sans-serif" font-size="11">Anyone at the badge workshop?</text>

  <rect x="240" y="64" width="148" height="18" fill="#24283B"/>
  <text x="384" y="76" fill="#7AA2F7" font-family="'Saira',sans-serif" font-size="11" text-anchor="end">Yes! Just arrived</text>
  <text x="384" y="84" fill="#565F89" font-family="'Saira',sans-serif" font-size="7" text-anchor="end">You</text>

  <text x="14" y="100" fill="#C0CAF5" font-family="'Saira',sans-serif" font-size="11">Soldering stations are free</text>

  <text x="14" y="124" fill="#C0CAF5" font-family="'Saira',sans-serif" font-size="11">Starting in 10 min, hurry!</text>

  <rect x="287" y="132" width="101" height="18" fill="#24283B"/>
  <text x="384" y="144" fill="#7AA2F7" font-family="'Saira',sans-serif" font-size="11" text-anchor="end">On my way!</text>
  <text x="384" y="152" fill="#565F89" font-family="'Saira',sans-serif" font-size="7" text-anchor="end">You</text>

  <text x="14" y="168" fill="#C0CAF5" font-family="'Saira',sans-serif" font-size="11">Which room? Main hall or annex?</text>

  <rect x="263" y="176" width="125" height="18" fill="#24283B"/>
  <text x="384" y="188" fill="#7AA2F7" font-family="'Saira',sans-serif" font-size="11" text-anchor="end">Annex B, room 3</text>
  <text x="384" y="196" fill="#565F89" font-family="'Saira',sans-serif" font-size="7" text-anchor="end">You</text>

  <text x="14" y="212" fill="#C0CAF5" font-family="'Saira',sans-serif" font-size="11">Thanks, see you there!</text>

  <!-- ── Input bar (idle) — green top border ── -->
  <rect x="0" y="608" width="400" height="1" fill="#9ECE6A"/>
  <rect x="0" y="609" width="400" height="18" fill="#24283B"/>
  <text x="10" y="621" fill="#9ECE6A" font-family="'Saira',sans-serif" font-size="11">T: send channel message</text>

  <!-- ── Footer ── -->
  <rect x="0" y="626" width="400" height="14" fill="#16161E"/>
  <rect x="0" y="626" width="400" height="1" fill="#24283B"/>
  <text x="6" y="637" fill="#565F89" font-family="'Saira',sans-serif" font-size="9">T: type   W/S: scroll   R: clear history   Tab: next</text>
</svg>
