<?xml version="1.0" encoding="UTF-8"?>
<!-- VIEW_SETTINGS (category-list mode) — landscape 800x480 at half-scale.
     v3.0.0: the old "Network" category was split into WiFi / HTTPS / Bluetooth,
     so the grid grew to the 4x3 / 58px-tile pattern shared with VIEW_HOME.
     Visible grid = 9 drilldown categories + the external Toolbox launcher tile,
     in s_categories[] source order (Advert is hidden_from_grid — reached via
     the Home -> Advert tile, so it is not drawn here):
     Identity, Regulatory, Radio, WiFi, HTTPS, Bluetooth, Region & Location,
     Brightness, Sounds, Toolbox. -->
<svg xmlns="http://www.w3.org/2000/svg" width="400" height="240" viewBox="0 0 400 240">
  <defs>
    <style type="text/css"><![CDATA[
      text { font-family: 'Saira', 'Helvetica Neue', sans-serif; }
    ]]></style>
  </defs>

  <rect width="400" height="240" fill="#0E141B" rx="4"/>
  <rect x="0.5" y="0.5" width="399" height="239" fill="none" stroke="#16161E" stroke-width="1" rx="4"/>

  <!-- Tab bar -->
  <rect x="0" y="0" width="400" height="22" fill="#0E141B"/>
  <rect x="0" y="21" width="400" height="1" fill="#FAA61A"/>
  <text x="6" y="15" fill="#FAA61A" font-size="10" font-weight="600">Settings</text>
  <text x="290" y="15" fill="#9ECE6A" font-size="9">RX:42</text>
  <text x="325" y="15" fill="#C0C8D0" font-size="9">TX:0.4%</text>
  <text x="364" y="15" fill="#9ECE6A" font-size="9">87%+</text>

  <!-- 4x3 tile grid. Tiles 74x58. Cols x=14,102,190,278 (centres 51,139,227,315).
       Rows y=26,90,154. -->

  <!-- ===== Row 1 (y=26) ===== -->
  <!-- Identity (focused) -->
  <rect x="14" y="26" width="74" height="58" fill="#FAA61A"/>
  <rect x="16" y="28" width="70" height="2" fill="#0E141B"/>
  <rect x="16" y="82" width="70" height="2" fill="#0E141B"/>
  <rect x="16" y="28" width="2" height="54" fill="#0E141B"/>
  <rect x="86" y="28" width="2" height="54" fill="#0E141B"/>
  <circle cx="51" cy="43" r="3.5" fill="none" stroke="#16161E" stroke-width="1.5"/>
  <circle cx="51" cy="55" r="7" fill="none" stroke="#16161E" stroke-width="1.5"/>
  <text x="51" y="72" text-anchor="middle" fill="#16161E" font-size="10" font-weight="500">Identity</text>

  <!-- Regulatory -->
  <rect x="102" y="26" width="74" height="58" fill="#16161E"/>
  <polygon points="139,38 149,44 149,56 139,62 129,56 129,44" fill="none" stroke="#C0C8D0" stroke-width="1.5"/>
  <text x="139" y="72" text-anchor="middle" fill="#C0C8D0" font-size="10" font-weight="500">Regulatory</text>

  <!-- Radio -->
  <rect x="190" y="26" width="74" height="58" fill="#16161E"/>
  <circle cx="227" cy="48" r="2.5" fill="#C0C8D0"/>
  <circle cx="227" cy="48" r="7" fill="none" stroke="#C0C8D0" stroke-width="1.5"/>
  <circle cx="227" cy="48" r="11" fill="none" stroke="#C0C8D0" stroke-width="1.5"/>
  <text x="227" y="72" text-anchor="middle" fill="#C0C8D0" font-size="10" font-weight="500">Radio</text>

  <!-- WiFi (split from Network) -->
  <rect x="278" y="26" width="74" height="58" fill="#16161E"/>
  <g fill="none" stroke="#C0C8D0" stroke-width="1.5">
    <path d="M 310.8 43.8 A 6 6 0 0 1 319.2 43.8"/>
    <path d="M 307.9 41.1 A 10 10 0 0 1 322.1 41.1"/>
    <path d="M 305.1 38.1 A 14 14 0 0 1 324.9 38.1"/>
  </g>
  <circle cx="315" cy="48" r="2" fill="#C0C8D0"/>
  <text x="315" y="72" text-anchor="middle" fill="#C0C8D0" font-size="10" font-weight="500">WiFi</text>

  <!-- ===== Row 2 (y=90) ===== -->
  <!-- HTTPS (split from Network) - padlock -->
  <rect x="14" y="90" width="74" height="58" fill="#16161E"/>
  <rect x="43" y="110" width="16" height="12" rx="1.5" fill="none" stroke="#C0C8D0" stroke-width="1.5"/>
  <path d="M 46 110 L 46 106 A 5 5 0 0 1 56 106 L 56 110" fill="none" stroke="#C0C8D0" stroke-width="1.5"/>
  <circle cx="51" cy="115" r="1.4" fill="#C0C8D0"/>
  <text x="51" y="136" text-anchor="middle" fill="#C0C8D0" font-size="10" font-weight="500">HTTPS</text>

  <!-- Bluetooth (split from Network) - rune -->
  <rect x="102" y="90" width="74" height="58" fill="#16161E"/>
  <path d="M 132 106 L 146 118 L 139 124 L 139 100 L 146 106 L 132 118"
        fill="none" stroke="#C0C8D0" stroke-width="1.5" stroke-linejoin="round"/>
  <text x="139" y="136" text-anchor="middle" fill="#C0C8D0" font-size="10" font-weight="500">Bluetooth</text>

  <!-- Region & Location -->
  <rect x="190" y="90" width="74" height="58" fill="#16161E"/>
  <circle cx="227" cy="108" r="7" fill="none" stroke="#C0C8D0" stroke-width="1.5"/>
  <line x1="222" y1="113" x2="227" y2="126" stroke="#C0C8D0" stroke-width="1.5"/>
  <line x1="232" y1="113" x2="227" y2="126" stroke="#C0C8D0" stroke-width="1.5"/>
  <circle cx="227" cy="108" r="2.5" fill="#C0C8D0"/>
  <text x="227" y="133" text-anchor="middle" fill="#C0C8D0" font-size="9" font-weight="500">Region &amp;</text>
  <text x="227" y="142" text-anchor="middle" fill="#C0C8D0" font-size="9" font-weight="500">Location</text>

  <!-- Brightness -->
  <rect x="278" y="90" width="74" height="58" fill="#16161E"/>
  <circle cx="315" cy="112" r="5" fill="#C0C8D0"/>
  <g stroke="#C0C8D0" stroke-width="1.5">
    <line x1="315" y1="102" x2="315" y2="98"/>
    <line x1="315" y1="126" x2="315" y2="122"/>
    <line x1="305" y1="112" x2="301" y2="112"/>
    <line x1="325" y1="112" x2="329" y2="112"/>
  </g>
  <text x="315" y="136" text-anchor="middle" fill="#C0C8D0" font-size="10" font-weight="500">Brightness</text>

  <!-- ===== Row 3 (y=154) ===== -->
  <!-- Sounds -->
  <rect x="14" y="154" width="74" height="58" fill="#16161E"/>
  <polygon points="41,170 48,170 55,164 55,188 48,182 41,182" fill="none" stroke="#C0C8D0" stroke-width="1.5"/>
  <path d="M 58 170 A 7 7 0 0 1 58 182" fill="none" stroke="#C0C8D0" stroke-width="1.5"/>
  <path d="M 63 166 A 12 12 0 0 1 63 186" fill="none" stroke="#C0C8D0" stroke-width="1.5"/>
  <text x="51" y="200" text-anchor="middle" fill="#C0C8D0" font-size="10" font-weight="500">Sounds</text>

  <!-- Toolbox (external launcher tile, first == FIELD_COUNT) -->
  <rect x="102" y="154" width="74" height="58" fill="#16161E"/>
  <path d="M 133 172 L 133 169 A 2 2 0 0 1 135 167 L 143 167 A 2 2 0 0 1 145 169 L 145 172"
        fill="none" stroke="#C0C8D0" stroke-width="1.5"/>
  <rect x="125" y="172" width="28" height="14" rx="1.5" fill="none" stroke="#C0C8D0" stroke-width="1.5"/>
  <line x1="125" y1="178" x2="153" y2="178" stroke="#C0C8D0" stroke-width="1.5"/>
  <rect x="137" y="176" width="4" height="4" fill="#C0C8D0"/>
  <text x="139" y="200" text-anchor="middle" fill="#C0C8D0" font-size="10" font-weight="500">Toolbox</text>

  <!-- Empty slots -->
  <rect x="190" y="154" width="74" height="58" fill="#0E141B" stroke="#16161E" stroke-width="1" stroke-dasharray="2,2"/>
  <rect x="278" y="154" width="74" height="58" fill="#0E141B" stroke="#16161E" stroke-width="1" stroke-dasharray="2,2"/>

  <!-- Footer (shrunk to ~28px so three rows fit) -->
  <rect x="0" y="212" width="400" height="28" fill="#16161E"/>
  <rect x="0" y="212" width="400" height="1" fill="#FAA61A"/>
  <text x="6" y="224" fill="#565F89" font-size="8">WSAD: nav   Enter: open category   ESC: home   Tab: next view</text>
  <text x="6" y="235" fill="#565F89" font-size="8">Advert category is hidden here - reached via Home -&gt; Advert tile</text>
  <text x="394" y="224" text-anchor="end" fill="#565F89" font-size="8">9 categories + Toolbox</text>
</svg>
