<?xml version="1.0" encoding="UTF-8"?>
<!-- VIEW_HOME — tile-grid landing screen. Landscape 800×480 at half-scale.
     Tile heights tightened so the canvas reads as dense (matches the
     settings-radio-drill density reference). -->
<svg xmlns="http://www.w3.org/2000/svg" width="400" height="240" viewBox="0 0 400 240">
  <defs>
    <style type="text/css"><![CDATA[
      text { font-family: 'Saira', 'Helvetica Neue', sans-serif; }
    ]]></style>
  </defs>

  <rect width="400" height="240" fill="#0E141B" rx="4"/>
  <rect x="0.5" y="0.5" width="399" height="239" fill="none" stroke="#16161E" stroke-width="1" rx="4"/>

  <!-- Top status strip -->
  <rect x="0" y="0" width="400" height="22" fill="#0E141B"/>
  <rect x="0" y="21" width="400" height="1" fill="#FAA61A"/>
  <text x="6" y="15" fill="#C0C8D0" font-size="10" font-weight="500">CJvS</text>
  <text x="290" y="15" fill="#9ECE6A" font-size="9">RX:42</text>
  <text x="325" y="15" fill="#C0C8D0" font-size="9">TX:0.4%</text>
  <text x="364" y="15" fill="#9ECE6A" font-size="9">87%+</text>

  <!-- 4×2 tile grid. Tiles 74×72 with 12px horizontal gap, 8px vertical gap.
       Area starts y=30. -->
  <!-- Row 1 -->
  <!-- Tile 0: Nodes (focused, amber) -->
  <rect x="14" y="30" width="74" height="72" fill="#FAA61A"/>
  <rect x="16" y="32" width="70" height="2" fill="#0E141B"/>
  <rect x="16" y="98" width="70" height="2" fill="#0E141B"/>
  <rect x="16" y="32" width="2" height="68" fill="#0E141B"/>
  <rect x="86" y="32" width="2" height="68" fill="#0E141B"/>
  <line x1="44" y1="55" x2="58" y2="55" stroke="#16161E" stroke-width="1.5"/>
  <line x1="44" y1="55" x2="51" y2="68" stroke="#16161E" stroke-width="1.5"/>
  <line x1="58" y1="55" x2="51" y2="68" stroke="#16161E" stroke-width="1.5"/>
  <circle cx="44" cy="55" r="2.5" fill="#16161E"/>
  <circle cx="58" cy="55" r="2.5" fill="#16161E"/>
  <circle cx="51" cy="68" r="2.5" fill="#16161E"/>
  <text x="51" y="90" text-anchor="middle" fill="#16161E" font-size="10" font-weight="500">Nodes</text>

  <!-- Tile 1: DM (with unread badge) -->
  <rect x="102" y="30" width="74" height="72" fill="#16161E"/>
  <rect x="124" y="50" width="30" height="18" fill="#C0C8D0" rx="2"/>
  <polygon points="129,68 137,68 132,74" fill="#C0C8D0"/>
  <text x="139" y="90" text-anchor="middle" fill="#C0C8D0" font-size="10" font-weight="500">DM</text>
  <rect x="155" y="34" width="18" height="13" fill="#F7768E" rx="2"/>
  <text x="164" y="44" text-anchor="middle" fill="#0E141B" font-size="8" font-weight="600">3</text>

  <!-- Tile 2: Channel -->
  <rect x="190" y="30" width="74" height="72" fill="#16161E"/>
  <text x="227" y="68" text-anchor="middle" fill="#C0C8D0" font-size="26">#</text>
  <text x="227" y="90" text-anchor="middle" fill="#C0C8D0" font-size="10" font-weight="500">Channel</text>

  <!-- Tile 3: Map (soon) -->
  <rect x="278" y="30" width="74" height="72" fill="#16161E"/>
  <circle cx="315" cy="58" r="11" fill="none" stroke="#565F89" stroke-width="1.5"/>
  <line x1="304" y1="58" x2="326" y2="58" stroke="#565F89" stroke-width="1.5"/>
  <circle cx="315" cy="58" r="5" fill="none" stroke="#565F89" stroke-width="1.5"/>
  <text x="315" y="85" text-anchor="middle" fill="#565F89" font-size="10" font-weight="500">Map</text>
  <text x="315" y="94" text-anchor="middle" fill="#565F89" font-size="7">soon</text>

  <!-- Row 2 (y=110, h=72) -->
  <!-- Tile 4: Advert -->
  <rect x="14" y="110" width="74" height="72" fill="#16161E"/>
  <g fill="#C0C8D0">
    <rect x="37" y="124" width="4" height="4"/><rect x="46" y="124" width="4" height="4"/><rect x="55" y="124" width="4" height="4"/>
    <rect x="41" y="133" width="4" height="4"/><rect x="50" y="133" width="4" height="4"/>
    <rect x="37" y="142" width="4" height="4"/><rect x="46" y="142" width="4" height="4"/><rect x="55" y="142" width="4" height="4"/>
  </g>
  <text x="51" y="170" text-anchor="middle" fill="#C0C8D0" font-size="10" font-weight="500">Advert</text>

  <!-- Tile 5: Settings -->
  <rect x="102" y="110" width="74" height="72" fill="#16161E"/>
  <circle cx="139" cy="138" r="7" fill="none" stroke="#C0C8D0" stroke-width="1.5"/>
  <circle cx="139" cy="138" r="3" fill="none" stroke="#C0C8D0" stroke-width="1.5"/>
  <g fill="#C0C8D0">
    <circle cx="139" cy="126" r="1.3"/><circle cx="150" cy="138" r="1.3"/>
    <circle cx="139" cy="150" r="1.3"/><circle cx="128" cy="138" r="1.3"/>
  </g>
  <text x="139" y="170" text-anchor="middle" fill="#C0C8D0" font-size="10" font-weight="500">Settings</text>

  <!-- Tile 6: About -->
  <rect x="190" y="110" width="74" height="72" fill="#16161E"/>
  <circle cx="227" cy="138" r="11" fill="none" stroke="#C0C8D0" stroke-width="1.5"/>
  <text x="227" y="144" text-anchor="middle" fill="#C0C8D0" font-size="13" font-style="italic" font-weight="500">i</text>
  <text x="227" y="170" text-anchor="middle" fill="#C0C8D0" font-size="10" font-weight="500">About</text>

  <!-- Tile 7: QR -->
  <rect x="278" y="110" width="74" height="72" fill="#16161E"/>
  <g fill="#C0C8D0">
    <rect x="301" y="124" width="4" height="4"/><rect x="310" y="124" width="4" height="4"/><rect x="319" y="124" width="4" height="4"/>
    <rect x="305" y="133" width="4" height="4"/><rect x="314" y="133" width="4" height="4"/>
    <rect x="301" y="142" width="4" height="4"/><rect x="310" y="142" width="4" height="4"/><rect x="319" y="142" width="4" height="4"/>
  </g>
  <text x="315" y="170" text-anchor="middle" fill="#C0C8D0" font-size="10" font-weight="500">QR</text>

  <!-- Footer -->
  <rect x="0" y="194" width="400" height="46" fill="#16161E"/>
  <rect x="0" y="194" width="400" height="1" fill="#FAA61A"/>
  <text x="6" y="207" fill="#565F89" font-size="8">WSAD: nav   Enter: open   Tab: classic views   ESC: home / launcher</text>
  <text x="6" y="219" fill="#565F89" font-size="8">tanmatsu.local  ·  HTTPS /ping ready</text>
  <text x="394" y="207" text-anchor="end" fill="#565F89" font-size="8">RX:-92  SNR:+4  N:-110</text>
  <text x="394" y="219" text-anchor="end" fill="#565F89" font-size="8">3 unread DMs  ·  1 channel msg</text>
</svg>
